/* XPM */
static char * close_pressed_xpm[] = {
"24 24 36 1",
" 	c None",
".	c #822D3A",
"+	c #B22A37",
"@	c #CA2736",
"#	c #CA2837",
"$	c #802E3A",
"%	c #62303C",
"&	c #CA2836",
"*	c #D52735",
"=	c #C82836",
"-	c #60313C",
";	c #62303D",
">	c #D22735",
",	c #CD2533",
"'	c #C72432",
")	c #C62432",
"!	c #CE2634",
"~	c #C92836",
"{	c #822E3A",
"]	c #A11D2B",
"^	c #C32432",
"/	c #C22331",
"(	c #802E3B",
"_	c #B42A37",
":	c #B12B36",
"<	c #CD2836",
"[	c #B12B38",
"}	c #832E3A",
"|	c #C82432",
"1	c #7F2E3A",
"2	c #CD2634",
"3	c #63303C",
"4	c #60303C",
"5	c #61303C",
"6	c #CB2836",
"7	c #812D3A",
"                        ",
"                        ",
"                        ",
"                        ",
"                        ",
"         .+@#+$         ",
"       %&******=-       ",
"      ;>********>-      ",
"      @*,'****)!*~      ",
"     {**)]^**/]'**(     ",
"     _***/]^/]^***:     ",
"     <****/]]^****~     ",
"     <****/]]^****~     ",
"     _***/]^/]^***[     ",
"     }**)]^**/]|**1     ",
"      ~*2'****'!*=      ",
"      3>********>4      ",
"       3#******~5       ",
"         {_66+7         ",
"                        ",
"                        ",
"                        ",
"                        ",
"                        "};
