/* XPM */
static char * close_active_xpm[] = {
"24 24 26 1",
" 	c None",
".	c #822E3B",
"+	c #B9323D",
"@	c #D53641",
"#	c #D43641",
"$	c #B8313D",
"%	c #812E3A",
"&	c #62303C",
"*	c #D33640",
"=	c #ED4A51",
"-	c #F15056",
";	c #ED4951",
">	c #D03440",
",	c #60303C",
"'	c #63303C",
")	c #E13B45",
"!	c #DF3B45",
"~	c #D43540",
"{	c #D23540",
"]	c #832E3A",
"^	c #7F2E3A",
"/	c #BA323D",
"(	c #B6313D",
"_	c #D63642",
":	c #D33641",
"<	c #D33541",
"                        ",
"                        ",
"                        ",
"                        ",
"                        ",
"         .+@#$%         ",
"       &*=----;>,       ",
"      ')--------!,      ",
"      ~----------{      ",
"     ]=----------;^     ",
"     /------------(     ",
"     _------------:     ",
"     _------------:     ",
"     /------------(     ",
"     ]=----------;^     ",
"      <---------->      ",
"      ')--------!,      ",
"       &*=----;>,       ",
"         .+@#$%         ",
"                        ",
"                        ",
"                        ",
"                        ",
"                        "};
