/* XPM */
static char * hide_pressed_xpm[] = {
"24 24 49 1",
" 	c None",
".	c #403F3B",
"+	c #896D27",
"@	c #C39420",
"#	c #E0A920",
"$	c #896C27",
"%	c #3F3E3B",
"&	c #6B592F",
"*	c #DDA720",
"=	c #F6C031",
"-	c #FAC536",
";	c #DDA620",
">	c #6A582F",
",	c #6A592F",
"'	c #EAB324",
")	c #69582F",
"!	c #DCA520",
"~	c #3F3E3A",
"{	c #886B27",
"]	c #C29421",
"^	c #C29321",
"/	c #E0A91F",
"(	c #DBA32B",
"_	c #C08522",
":	c #DCA42B",
"<	c #DFA81F",
"[	c #E0A81F",
"}	c #DCA52C",
"|	c #C28723",
"1	c #DDA52C",
"2	c #DEA71F",
"3	c #C29221",
"4	c #C19221",
"5	c #886B28",
"6	c #866B27",
"7	c #3F3D3A",
"8	c #DBA420",
"9	c #3E3D3A",
"0	c #67572F",
"a	c #EAB123",
"b	c #68572F",
"c	c #DBA520",
"d	c #D9A41F",
"e	c #67562F",
"f	c #3E3D3B",
"g	c #866A27",
"h	c #C09120",
"i	c #BF9120",
"j	c #856A27",
"                        ",
"                        ",
"                        ",
"                        ",
"                        ",
"        .+@##@$%        ",
"       &*=----=;>       ",
"      ,'--------')      ",
"     %;----------!~     ",
"     $=----------={     ",
"     ]------------^     ",
"     /-(________:-<     ",
"     [-}||||||||1-2     ",
"     3------------4     ",
"     5=----------=6     ",
"     78----------89     ",
"      0a--------a0      ",
"       bc=----=de       ",
"        fgh;;ijf        ",
"                        ",
"                        ",
"                        ",
"                        ",
"                        "};
