/* XPM */
static char * maximize_prelight_xpm[] = {
"24 24 42 1",
" 	c None",
".	c #2C3F3C",
"+	c #21792F",
"@	c #19A325",
"#	c #15B820",
"$	c #19A425",
"%	c #217A2F",
"&	c #275E36",
"*	c #15B620",
"=	c #13C11E",
"-	c #15B720",
";	c #266034",
">	c #14BE1F",
",	c #13BF1F",
"'	c #10A816",
")	c #0E9611",
"!	c #0F9812",
"~	c #12B91C",
"{	c #2D413D",
"]	c #217830",
"^	c #13BD1D",
"/	c #0D870C",
"(	c #0B7407",
"_	c #0F9B12",
":	c #217B2E",
"<	c #19A324",
"[	c #10A917",
"}	c #12BC1C",
"|	c #0F9912",
"1	c #18A524",
"2	c #0D850C",
"3	c #15BA20",
"4	c #19A326",
"5	c #2D3E3D",
"6	c #16B621",
"7	c #0F9A12",
"8	c #0F9811",
"9	c #10A716",
"0	c #2D403C",
"a	c #275F35",
"b	c #14BF1F",
"c	c #266134",
"                        ",
"                        ",
"                        ",
"                        ",
"                        ",
"        .+@##$%.        ",
"       &*======-;       ",
"      &>========,;      ",
"     .*===')))!~=#{     ",
"     ]====^/(((_==:     ",
"     <==[}=^/((|==1     ",
"     *==|2}=^/(|==3     ",
"     *==|(2}=^/|==3     ",
"     4==|((2}=^[==1     ",
"     +==_(((2}====:     ",
"     56=~78889===#0     ",
"      ab========,c      ",
"       a-======-;       ",
"        0+$##$:0        ",
"                        ",
"                        ",
"                        ",
"                        ",
"                        "};
