/* XPM */
static char * maximize_active_xpm[] = {
"24 24 22 1",
" 	c None",
".	c #217A2F",
"+	c #20AB2D",
"@	c #22C62F",
"#	c #227A2F",
"$	c #275D35",
"%	c #20C42D",
"&	c #33E342",
"*	c #39E949",
"=	c #266034",
"-	c #26D233",
";	c #26D234",
">	c #20C32D",
",	c #21C52E",
"'	c #21792F",
")	c #33E443",
"!	c #217C2E",
"~	c #20A92D",
"{	c #21AD2D",
"]	c #22C730",
"^	c #20C22D",
"/	c #21C42D",
"                        ",
"                        ",
"                        ",
"                        ",
"                        ",
"         .+@@+#         ",
"       $%&****&%=       ",
"      $-********;=      ",
"      >**********,      ",
"     '&**********)!     ",
"     ~************{     ",
"     ,************]     ",
"     ,************]     ",
"     ~************{     ",
"     '&**********)!     ",
"      ^**********/      ",
"      $-********;=      ",
"       $%&****&%=       ",
"         .+@@+#         ",
"                        ",
"                        ",
"                        ",
"                        ",
"                        "};
